<?xml version="1.0" standalone="no"?>
<!DOCTYPE svg PUBLIC "-//W3C//DTD SVG 20010904//EN"
 "http://www.w3.org/TR/2001/REC-SVG-20010904/DTD/svg10.dtd">
<svg version="1.0" xmlns="http://www.w3.org/2000/svg"
 width="672.000000pt" height="625.000000pt" viewBox="0 0 672.000000 625.000000"
 preserveAspectRatio="xMidYMid meet">

<g transform="translate(0.000000,625.000000) scale(0.100000,-0.100000)"
fill="#000000" stroke="none">
<path d="M1590 5804 l0 -446 33 6 c17 4 49 9 70 13 l37 6 0 433 0 434 -70 0
-70 0 0 -446z"/>
<path d="M4788 3658 c-3 -2427 -4 -2596 -20 -2643 -26 -76 -72 -139 -133 -180
-106 -74 -29 -69 -1320 -73 -764 -2 -1187 1 -1239 7 -108 15 -185 52 -246 117
-53 59 -74 110 -90 219 -6 42 -10 400 -10 893 l0 824 -30 -6 c-16 -3 -45 -9
-62 -13 -18 -4 -36 -6 -40 -5 -5 1 -8 -324 -8 -723 0 -477 3 -725 10 -725 14
0 13 -37 -1 -46 -9 -5 -10 -43 -6 -133 10 -193 48 -295 151 -396 98 -97 213
-141 396 -152 87 -5 100 -4 106 11 8 20 40 21 52 1 7 -14 127 -15 1098 -13
1004 3 1094 5 1149 21 100 29 167 67 231 132 104 103 141 203 151 401 4 86 2
123 -6 128 -14 9 -15 46 -1 46 7 0 10 823 10 2450 l0 2450 -70 0 -70 0 -2
-2592z"/>
<path d="M2720 6140 c0 -56 14 -70 58 -54 32 11 44 44 28 75 -8 18 -21 25 -49
27 l-37 3 0 -51z m69 13 c12 -23 -4 -53 -29 -53 -16 0 -20 7 -20 35 0 28 4 35
20 35 10 0 23 -8 29 -17z"/>
<path d="M2830 6180 c0 -5 5 -10 10 -10 6 0 10 5 10 10 0 6 -4 10 -10 10 -5 0
-10 -4 -10 -10z"/>
<path d="M3155 6139 c-17 -50 -13 -80 6 -46 6 9 16 17 24 17 8 0 18 -8 24 -17
5 -10 13 -15 16 -11 11 11 -25 108 -40 108 -7 0 -21 -23 -30 -51z m45 -11 c0
-5 -7 -8 -15 -8 -17 0 -18 2 -9 25 5 13 8 14 15 3 5 -7 9 -16 9 -20z"/>
<path d="M3390 6176 c0 -9 -12 -16 -27 -18 -20 -2 -29 -9 -31 -26 -5 -32 14
-51 49 -50 28 1 29 2 29 55 0 29 -4 53 -10 53 -5 0 -10 -6 -10 -14z m-2 -55
c-5 -24 -38 -27 -38 -3 0 10 3 21 6 25 11 11 35 -5 32 -22z"/>
<path d="M2830 6120 c0 -22 5 -40 10 -40 6 0 10 18 10 40 0 22 -4 40 -10 40
-5 0 -10 -18 -10 -40z"/>
<path d="M2870 6150 c0 -7 8 -9 20 -5 27 9 25 -8 -2 -20 -35 -15 -29 -39 10
-43 33 -3 33 -3 30 35 -3 33 -7 38 -30 41 -16 2 -28 -2 -28 -8z m40 -40 c0 -5
-8 -10 -17 -10 -15 0 -16 2 -3 10 19 12 20 12 20 0z"/>
<path d="M2950 6121 c0 -49 17 -55 22 -8 2 17 8 32 13 32 6 0 11 -15 13 -32 2
-18 8 -33 13 -33 6 0 9 17 7 38 -3 34 -6 37 -35 40 -32 3 -33 2 -33 -37z"/>
<path d="M3040 6150 c0 -7 7 -10 15 -7 8 4 17 2 20 -3 3 -5 -5 -10 -17 -12
-15 -2 -23 -10 -23 -23 0 -16 7 -20 33 -22 32 -1 33 0 30 35 -3 32 -7 37 -30
40 -17 2 -28 -2 -28 -8z m40 -40 c0 -5 -7 -10 -16 -10 -8 0 -12 5 -9 10 3 6
10 10 16 10 5 0 9 -4 9 -10z"/>
<path d="M3251 6118 c1 -39 2 -40 8 -13 3 17 13 30 21 30 8 0 18 -13 21 -30 6
-27 7 -26 8 13 1 40 0 42 -29 42 -29 0 -30 -2 -29 -42z"/>
<path d="M3430 6141 c-5 -11 -7 -26 -4 -35 7 -18 39 -30 54 -21 18 11 11 23
-10 18 -11 -3 -20 0 -20 6 0 6 12 11 26 11 20 0 25 4 20 16 -3 9 -6 18 -6 20
0 14 -51 1 -60 -15z m45 -1 c3 -5 -1 -10 -9 -10 -9 0 -16 5 -16 10 0 6 4 10 9
10 6 0 13 -4 16 -10z"/>
<path d="M3510 6126 c0 -19 5 -38 10 -41 6 -3 10 4 10 16 0 12 7 31 17 41 15
17 15 18 -10 18 -24 0 -27 -4 -27 -34z"/>
<path d="M3577 6153 c-13 -13 -7 -30 16 -42 l22 -12 -22 5 c-23 4 -31 -8 -13
-19 16 -10 50 5 50 22 0 8 -9 17 -20 20 -11 3 -20 9 -20 13 0 5 10 6 22 2 14
-3 19 -2 14 6 -8 13 -39 16 -49 5z"/>
<path d="M3652 6148 c-25 -25 -7 -68 29 -68 25 0 42 26 35 55 -7 27 -42 35
-64 13z m48 -29 c0 -23 -28 -26 -37 -3 -6 16 15 37 29 28 4 -3 8 -14 8 -25z"/>
<path d="M3741 6118 c1 -39 2 -40 8 -13 9 43 39 45 43 3 3 -26 6 -29 12 -15 5
9 5 28 2 42 -5 20 -13 25 -36 25 -29 0 -30 -2 -29 -42z"/>
<path d="M1550 6010 c0 -66 4 -120 9 -120 16 0 21 31 21 136 0 86 -3 104 -15
104 -12 0 -15 -20 -15 -120z"/>
<path d="M1558 5643 c7 -3 16 -2 19 1 4 3 -2 6 -13 5 -11 0 -14 -3 -6 -6z"/>
<path d="M1557 5613 c-4 -3 -7 -64 -7 -135 0 -99 3 -129 13 -126 8 3 13 40 15
128 2 113 -4 151 -21 133z"/>
<path d="M4950 5470 c0 -5 5 -10 11 -10 5 0 7 5 4 10 -3 6 -8 10 -11 10 -2 0
-4 -4 -4 -10z"/>
<path d="M4955 5060 c0 -212 1 -298 2 -192 2 105 2 279 0 385 -1 105 -2 19 -2
-193z"/>
<path d="M5475 5269 c-10 -30 -2 -32 12 -3 6 13 7 24 3 24 -5 0 -12 -9 -15
-21z"/>
<path d="M5518 5279 c-10 -5 -18 -22 -18 -37 0 -15 -6 -39 -14 -54 -16 -30
-12 -38 17 -38 10 0 21 -9 24 -20 4 -14 14 -20 33 -20 19 0 29 6 33 20 3 11
14 20 24 20 26 0 34 9 23 29 -5 9 -15 36 -22 61 -12 41 -16 45 -48 47 -19 2
-43 -2 -52 -8z m62 -149 c0 -5 -9 -10 -20 -10 -11 0 -20 5 -20 10 0 6 9 10 20
10 11 0 20 -4 20 -10z"/>
<path d="M5633 5266 c7 -14 13 -23 15 -21 7 6 -9 45 -18 45 -4 0 -3 -11 3 -24z"/>
<path d="M4950 4649 c0 -5 5 -7 10 -4 6 3 10 8 10 11 0 2 -4 4 -10 4 -5 0 -10
-5 -10 -11z"/>
<path d="M2647 4460 c-32 -26 -41 -67 -27 -120 22 -83 87 -114 135 -65 41 41
33 139 -16 184 -29 26 -59 27 -92 1z m91 -25 c28 -35 37 -97 20 -132 -10 -22
-21 -29 -50 -31 -30 -3 -40 1 -54 23 -26 40 -31 121 -9 145 26 28 69 26 93 -5z"/>
<path d="M2440 4415 c-41 -44 -26 -155 26 -190 32 -21 58 -19 89 8 23 19 27
31 27 74 -1 112 -81 173 -142 108z m102 -16 c25 -29 34 -107 17 -138 -27 -47
-88 -40 -113 13 -48 101 29 202 96 125z"/>
<path d="M2183 4380 c-30 -12 -43 -41 -43 -95 0 -105 75 -158 145 -103 26 20
27 25 23 86 -4 58 -8 68 -36 93 -34 30 -52 34 -89 19z m83 -65 c19 -47 18 -89
-5 -109 -27 -25 -60 -12 -77 30 -27 66 -12 114 37 114 25 0 33 -6 45 -35z"/>
<path d="M2032 4342 c-36 -18 -37 -37 -2 -37 22 0 25 -7 41 -83 9 -45 18 -84
20 -87 3 -2 11 0 18 4 10 7 9 27 -8 111 -12 57 -21 104 -21 106 0 7 -15 3 -48
-14z"/>
<path d="M2340 4330 c0 -15 5 -20 18 -18 9 2 17 10 17 18 0 8 -8 16 -17 18
-13 2 -18 -3 -18 -18z"/>
<path d="M2367 4224 c-14 -15 -6 -34 14 -34 14 0 19 5 17 17 -3 18 -20 27 -31
17z"/>
<path d="M2124 2298 c-4 -6 0 -16 9 -23 22 -16 22 -29 0 -20 -15 5 -16 4 -5
-6 10 -11 14 -11 25 0 10 10 9 15 -5 25 -22 16 -23 30 -2 22 8 -3 12 -2 9 4
-8 13 -22 13 -31 -2z"/>
<path d="M2391 2273 c1 -23 3 -29 6 -15 2 12 9 22 14 22 5 0 10 -10 10 -22 1
-19 2 -20 6 -5 3 11 -4 27 -16 38 l-21 20 1 -38z"/>
<path d="M2937 2303 c-4 -3 -7 -18 -7 -31 0 -31 7 -26 14 11 5 28 4 31 -7 20z"/>
<path d="M3011 2273 c1 -23 3 -29 6 -15 2 12 9 22 14 22 5 0 10 -10 10 -22 1
-19 2 -20 6 -5 3 11 -4 27 -16 38 l-21 20 1 -38z"/>
<path d="M3233 2275 c0 -22 2 -30 4 -17 2 12 2 30 0 40 -3 9 -5 -1 -4 -23z"/>
<path d="M3253 2275 c0 -22 2 -30 4 -17 2 12 2 30 0 40 -3 9 -5 -1 -4 -23z"/>
<path d="M2177 2293 c-5 -8 9 -53 16 -53 2 0 2 14 -1 30 -4 31 -8 36 -15 23z"/>
<path d="M2260 2277 c0 -14 4 -28 8 -31 9 -5 8 41 -1 51 -4 3 -7 -5 -7 -20z"/>
<path d="M2360 2277 c0 -14 4 -28 8 -31 9 -5 8 41 -1 51 -4 3 -7 -5 -7 -20z"/>
<path d="M2980 2277 c0 -14 4 -28 8 -31 9 -5 8 41 -1 51 -4 3 -7 -5 -7 -20z"/>
<path d="M2218 2283 c7 -3 16 -2 19 1 4 3 -2 6 -13 5 -11 0 -14 -3 -6 -6z"/>
<path d="M2294 2276 c-7 -18 3 -36 19 -36 7 0 6 4 -3 10 -13 8 -12 10 3 10 10
0 17 5 15 12 -7 19 -27 21 -34 4z"/>
<path d="M2444 2276 c-7 -18 3 -36 19 -36 7 0 6 4 -3 10 -13 8 -12 10 3 10 10
0 17 5 15 12 -7 19 -27 21 -34 4z"/>
<path d="M2510 2260 c0 -27 2 -30 19 -20 11 5 23 16 27 23 5 9 4 9 -7 0 -17
-17 -29 -16 -29 1 0 8 8 17 18 19 13 4 11 5 -5 6 -19 1 -23 -4 -23 -29z"/>
<path d="M2620 2279 c0 -5 5 -7 10 -4 6 3 10 8 10 11 0 2 -4 4 -10 4 -5 0 -10
-5 -10 -11z"/>
<path d="M2650 2282 c0 -4 9 -8 19 -8 11 0 17 4 15 8 -3 4 -12 8 -20 8 -8 0
-14 -4 -14 -8z"/>
<path d="M2723 2283 c9 -2 17 -11 17 -19 0 -16 -11 -18 -28 -4 -7 5 -5 2 3 -7
11 -13 18 -14 26 -6 16 16 4 43 -18 42 -17 -1 -17 -2 0 -6z"/>
<path d="M2765 2281 c-6 -11 13 -26 22 -17 4 3 0 6 -8 6 -11 0 -11 2 1 10 9 6
10 10 3 10 -6 0 -14 -4 -18 -9z"/>
<path d="M2825 2281 c19 -8 19 -9 -3 -14 -18 -4 -18 -4 -2 -3 26 1 28 20 3 23
-15 2 -15 1 2 -6z"/>
<path d="M2875 2280 c-4 -6 -4 -14 -1 -17 3 -4 6 -1 6 5 0 7 7 12 15 12 20 0
19 -27 0 -33 -11 -4 -10 -4 2 -3 23 2 24 40 1 44 -9 2 -19 -2 -23 -8z"/>
<path d="M3064 2276 c-7 -18 3 -36 19 -36 7 0 6 4 -3 10 -13 8 -12 10 3 10 10
0 17 5 15 12 -7 19 -27 21 -34 4z"/>
<path d="M3133 2274 c-8 -22 13 -42 30 -25 10 10 9 11 -5 6 -21 -8 -26 20 -5
28 9 4 9 6 -1 6 -7 1 -15 -6 -19 -15z"/>
<path d="M3196 2283 c7 -4 14 -17 17 -28 5 -16 5 -15 4 4 -1 14 -9 26 -17 28
-10 3 -11 2 -4 -4z"/>
<path d="M2218 2263 c7 -3 16 -2 19 1 4 3 -2 6 -13 5 -11 0 -14 -3 -6 -6z"/>
<path d="M3185 2261 c-3 -5 -2 -12 3 -15 5 -3 9 1 9 9 0 17 -3 19 -12 6z"/>
<path d="M2570 2248 c0 -4 7 -8 15 -8 8 0 15 4 15 8 0 5 -7 9 -15 9 -8 0 -15
-4 -15 -9z"/>
<path d="M2650 2248 c0 -4 6 -8 14 -8 8 0 17 4 20 8 2 4 -4 8 -15 8 -10 0 -19
-4 -19 -8z"/>
<path d="M1573 1145 c0 -22 2 -30 4 -17 2 12 2 30 0 40 -3 9 -5 -1 -4 -23z"/>
<path d="M4931 1044 c0 -11 3 -14 6 -6 3 7 2 16 -1 19 -3 4 -6 -2 -5 -13z"/>
<path d="M4921 1004 c0 -11 3 -14 6 -6 3 7 2 16 -1 19 -3 4 -6 -2 -5 -13z"/>
<path d="M4799 773 c-13 -16 -12 -17 4 -4 9 7 17 15 17 17 0 8 -8 3 -21 -13z"/>
<path d="M2163 603 c15 -2 39 -2 55 0 15 2 2 4 -28 4 -30 0 -43 -2 -27 -4z"/>
<path d="M2817 603 c288 -2 758 -2 1045 0 288 1 53 2 -522 2 -575 0 -810 -1
-523 -2z"/>
</g>
</svg>
